HIERARCHY
ROOT Hips
{
  OFFSET -391.381 77.3041 1484.37
  CHANNELS 6 Xposition Yposition Zposition Zrotation Xrotation Yrotation
  JOINT Spine
  {
    OFFSET -1.55474e-05 8 0.000140553
    CHANNELS 6 Xposition Yposition Zposition Zrotation Xrotation Yrotation
    JOINT Spine1
    {
      OFFSET 0.000476206 8 -0.000544462
      CHANNELS 6 Xposition Yposition Zposition Zrotation Xrotation Yrotation
      JOINT Spine2
      {
        OFFSET -0.0013121 8 0.00119398
        CHANNELS 6 Xposition Yposition Zposition Zrotation Xrotation Yrotation
        JOINT Spine3
        {
          OFFSET 0 8 0
          CHANNELS 6 Xposition Yposition Zposition Zrotation Xrotation Yrotation
          JOINT Neck
          {
            OFFSET 0 17 -7.93087e-05
            CHANNELS 6 Xposition Yposition Zposition Zrotation Xrotation Yrotation
            JOINT Head
            {
              OFFSET 0.000728984 10.7999 -0.000273927
              CHANNELS 6 Xposition Yposition Zposition Zrotation Xrotation Yrotation
              End Site
              {
                OFFSET 0 20.25 0
              }
            }
          }
          JOINT LeftShoulder
          {
            OFFSET 5.00002 17 0.000146009
            CHANNELS 6 Xposition Yposition Zposition Zrotation Xrotation Yrotation
            JOINT LeftShoulder2
            {
              OFFSET 6.45 0 0
              CHANNELS 6 Xposition Yposition Zposition Zrotation Xrotation Yrotation
              JOINT LeftArm
              {
                OFFSET 6.44999 2.1988e-05 -0.000110329
                CHANNELS 6 Xposition Yposition Zposition Zrotation Xrotation Yrotation
                JOINT LeftForeArm
                {
                  OFFSET -0.00295326 -32.4001 -2.00184
                  CHANNELS 6 Xposition Yposition Zposition Zrotation Xrotation Yrotation
                  JOINT LeftHand
                  {
                    OFFSET 0.00692828 -25.6461 1.99979
                    CHANNELS 6 Xposition Yposition Zposition Zrotation Xrotation Yrotation
                    JOINT LeftHandThumb1
                    {
                      OFFSET -0.49383 -1.49102 2.63525
                      CHANNELS 6 Xposition Yposition Zposition Zrotation Xrotation Yrotation
                      JOINT LeftHandThumb2
                      {
                        OFFSET -0.00119065 -3.79991 3.69658
                        CHANNELS 6 Xposition Yposition Zposition Zrotation Xrotation Yrotation
                        JOINT LeftHandThumb3
                        {
                          OFFSET 0.00195128 -2.99313 2.70237
                          CHANNELS 6 Xposition Yposition Zposition Zrotation Xrotation Yrotation
                          End Site
                          {
                            OFFSET -0.00816832 -2.30316 1.80642
                          }
                        }
                      }
                    }
                    JOINT LeftHandIndex
                    {
                      OFFSET 0.000575735 -1.90003 1.59988
                      CHANNELS 6 Xposition Yposition Zposition Zrotation Xrotation Yrotation
                      JOINT LeftHandIndex1
                      {
                        OFFSET -0.00107182 -8.3007 1.90145
                        CHANNELS 6 Xposition Yposition Zposition Zrotation Xrotation Yrotation
                        JOINT LeftHandIndex2
                        {
                          OFFSET 0.00148387 -4.49951 0.000239683
                          CHANNELS 6 Xposition Yposition Zposition Zrotation Xrotation Yrotation
                          JOINT LeftHandIndex3
                          {
                            OFFSET -0.000776038 -3.39932 -0.00198486
                            CHANNELS 6 Xposition Yposition Zposition Zrotation Xrotation Yrotation
                            End Site
                            {
                              OFFSET -0.00203507 -2.59944 0.00131152
                            }
                          }
                        }
                      }
                    }
                    JOINT LeftHandMiddle
                    {
                      OFFSET -0.246996 -2.1985 0.398106
                      CHANNELS 6 Xposition Yposition Zposition Zrotation Xrotation Yrotation
                      JOINT LeftHandMiddle1
                      {
                        OFFSET -6.75867e-05 -8.3001 0.999804
                        CHANNELS 6 Xposition Yposition Zposition Zrotation Xrotation Yrotation
                        JOINT LeftHandMiddle2
                        {
                          OFFSET 0.000468468 -4.64966 -0.00251611
                          CHANNELS 6 Xposition Yposition Zposition Zrotation Xrotation Yrotation
                          JOINT LeftHandMiddle3
                          {
                            OFFSET -8.65271e-05 -3.30021 0.000644596
                            CHANNELS 6 Xposition Yposition Zposition Zrotation Xrotation Yrotation
                            End Site
                            {
                              OFFSET 4.0791e-05 -2.70004 -0.00017857
                            }
                          }
                        }
                      }
                    }
                    JOINT LeftHandRing
                    {
                      OFFSET -0.506428 -2.15058 -0.802026
                      CHANNELS 6 Xposition Yposition Zposition Zrotation Xrotation Yrotation
                      JOINT LeftHandRing1
                      {
                        OFFSET -0.00407905 -7.74942 -0.203202
                        CHANNELS 6 Xposition Yposition Zposition Zrotation Xrotation Yrotation
                        JOINT LeftHandRing2
                        {
                          OFFSET -0.00625118 -3.80532 0.0133511
                          CHANNELS 6 Xposition Yposition Zposition Zrotation Xrotation Yrotation
                          JOINT LeftHandRing3
                          {
                            OFFSET 0.00436156 -3.39969 -0.000341857
                            CHANNELS 6 Xposition Yposition Zposition Zrotation Xrotation Yrotation
                            End Site
                            {
                              OFFSET 0.00195356 -2.59913 0.00171821
                            }
                          }
                        }
                      }
                    }
                    JOINT LeftHandPinky
                    {
                      OFFSET -0.750491 -1.74986 -1.85058
                      CHANNELS 6 Xposition Yposition Zposition Zrotation Xrotation Yrotation
                      JOINT LeftHandPinky1
                      {
                        OFFSET -0.00116534 -7.15011 -1.00067
                        CHANNELS 6 Xposition Yposition Zposition Zrotation Xrotation Yrotation
                        JOINT LeftHandPinky2
                        {
                          OFFSET -0.00100754 -3.0002 -0.000376773
                          CHANNELS 6 Xposition Yposition Zposition Zrotation Xrotation Yrotation
                          JOINT LeftHandPinky3
                          {
                            OFFSET -0.00110208 -2.35136 0.00233598
                            CHANNELS 6 Xposition Yposition Zposition Zrotation Xrotation Yrotation
                            End Site
                            {
                              OFFSET -0.00042697 -2.10046 9.43008e-05
                            }
                          }
                        }
                      }
                    }
                  }
                }
              }
            }
          }
          JOINT RightShoulder
          {
            OFFSET -5.00002 17 -2.13049e-05
            CHANNELS 6 Xposition Yposition Zposition Zrotation Xrotation Yrotation
            JOINT RightShoulder2
            {
              OFFSET -6.45 0 0
              CHANNELS 6 Xposition Yposition Zposition Zrotation Xrotation Yrotation
              JOINT RightArm
              {
                OFFSET -6.44997 -4.33548e-05 1.85423e-05
                CHANNELS 6 Xposition Yposition Zposition Zrotation Xrotation Yrotation
                JOINT RightForeArm
                {
                  OFFSET 0.00352619 -32.3986 -1.99729
                  CHANNELS 6 Xposition Yposition Zposition Zrotation Xrotation Yrotation
                  JOINT RightHand
                  {
                    OFFSET -0.00319018 -25.6496 1.99743
                    CHANNELS 6 Xposition Yposition Zposition Zrotation Xrotation Yrotation
                    JOINT RightHandThumb1
                    {
                      OFFSET 0.497072 -1.49922 2.64929
                      CHANNELS 6 Xposition Yposition Zposition Zrotation Xrotation Yrotation
                      JOINT RightHandThumb2
                      {
                        OFFSET 0.00116778 -3.79864 3.70331
                        CHANNELS 6 Xposition Yposition Zposition Zrotation Xrotation Yrotation
                        JOINT RightHandThumb3
                        {
                          OFFSET 0.00237151 -3.0018 2.69409
                          CHANNELS 6 Xposition Yposition Zposition Zrotation Xrotation Yrotation
                          End Site
                          {
                            OFFSET -0.011054 -2.28924 1.80994
                          }
                        }
                      }
                    }
                    JOINT RightHandIndex
                    {
                      OFFSET -3.69894e-05 -1.90003 1.59827
                      CHANNELS 6 Xposition Yposition Zposition Zrotation Xrotation Yrotation
                      JOINT RightHandIndex1
                      {
                        OFFSET -0.00198177 -8.29953 1.8984
                        CHANNELS 6 Xposition Yposition Zposition Zrotation Xrotation Yrotation
                        JOINT RightHandIndex2
                        {
                          OFFSET -8.81612e-05 -4.50134 -0.00176687
                          CHANNELS 6 Xposition Yposition Zposition Zrotation Xrotation Yrotation
                          JOINT RightHandIndex3
                          {
                            OFFSET 0.00021391 -3.4008 0.00103787
                            CHANNELS 6 Xposition Yposition Zposition Zrotation Xrotation Yrotation
                            End Site
                            {
                              OFFSET -0.000295406 -2.59604 0.00238547
                            }
                          }
                        }
                      }
                    }
                    JOINT RightHandMiddle
                    {
                      OFFSET 0.246894 -2.19952 0.396827
                      CHANNELS 6 Xposition Yposition Zposition Zrotation Xrotation Yrotation
                      JOINT RightHandMiddle1
                      {
                        OFFSET 0.00126319 -8.30046 1.00068
                        CHANNELS 6 Xposition Yposition Zposition Zrotation Xrotation Yrotation
                        JOINT RightHandMiddle2
                        {
                          OFFSET 0.00121017 -4.65133 0.00119921
                          CHANNELS 6 Xposition Yposition Zposition Zrotation Xrotation Yrotation
                          JOINT RightHandMiddle3
                          {
                            OFFSET 0.00180069 -3.30509 0.000453271
                            CHANNELS 6 Xposition Yposition Zposition Zrotation Xrotation Yrotation
                            End Site
                            {
                              OFFSET -0.00171169 -2.70336 0.000227547
                            }
                          }
                        }
                      }
                    }
                    JOINT RightHandRing
                    {
                      OFFSET 0.499836 -2.15003 -0.800066
                      CHANNELS 6 Xposition Yposition Zposition Zrotation Xrotation Yrotation
                      JOINT RightHandRing1
                      {
                        OFFSET -0.00158042 -7.74947 -0.200274
                        CHANNELS 6 Xposition Yposition Zposition Zrotation Xrotation Yrotation
                        JOINT RightHandRing2
                        {
                          OFFSET -5.66018e-05 -3.80269 0.00228718
                          CHANNELS 6 Xposition Yposition Zposition Zrotation Xrotation Yrotation
                          JOINT RightHandRing3
                          {
                            OFFSET 0.0025058 -3.39902 1.74009e-05
                            CHANNELS 6 Xposition Yposition Zposition Zrotation Xrotation Yrotation
                            End Site
                            {
                              OFFSET -0.000567663 -2.59816 -0.00144324
                            }
                          }
                        }
                      }
                    }
                    JOINT RightHandPinky
                    {
                      OFFSET 0.74719 -1.74865 -1.84857
                      CHANNELS 6 Xposition Yposition Zposition Zrotation Xrotation Yrotation
                      JOINT RightHandPinky1
                      {
                        OFFSET 0.000341627 -7.15007 -0.999509
                        CHANNELS 6 Xposition Yposition Zposition Zrotation Xrotation Yrotation
                        JOINT RightHandPinky2
                        {
                          OFFSET 0.000137193 -3.00031 -0.000371201
                          CHANNELS 6 Xposition Yposition Zposition Zrotation Xrotation Yrotation
                          JOINT RightHandPinky3
                          {
                            OFFSET -0.00101162 -2.35014 0.000845591
                            CHANNELS 6 Xposition Yposition Zposition Zrotation Xrotation Yrotation
                            End Site
                            {
                              OFFSET -0.000819132 -2.09949 -0.000590823
                            }
                          }
                        }
                      }
                    }
                  }
                }
              }
            }
          }
        }
      }
    }
  }
  JOINT LeftUpLeg
  {
    OFFSET 8 0 4.14213e-05
    CHANNELS 6 Xposition Yposition Zposition Zrotation Xrotation Yrotation
    JOINT LeftLeg
    {
      OFFSET 0.000346438 -45.0001 -0.999882
      CHANNELS 6 Xposition Yposition Zposition Zrotation Xrotation Yrotation
      JOINT LeftFoot
      {
        OFFSET 5.72781e-05 -41 -1.99966
        CHANNELS 6 Xposition Yposition Zposition Zrotation Xrotation Yrotation
        JOINT LeftToeBase
        {
          OFFSET -0.0021877 -7.49994 12.5021
          CHANNELS 6 Xposition Yposition Zposition Zrotation Xrotation Yrotation
          JOINT LeftFootToe
          {
            OFFSET 0 0 4
            CHANNELS 6 Xposition Yposition Zposition Zrotation Xrotation Yrotation
            End Site
            {
              OFFSET 0 0 0
            }
          }
        }
      }
    }
  }
  JOINT RightUpLeg
  {
    OFFSET -8 0 -4.14213e-05
    CHANNELS 6 Xposition Yposition Zposition Zrotation Xrotation Yrotation
    JOINT RightLeg
    {
      OFFSET -0.0036558 -45.0015 -0.995061
      CHANNELS 6 Xposition Yposition Zposition Zrotation Xrotation Yrotation
      JOINT RightFoot
      {
        OFFSET 0.000980397 -41.0027 -1.99942
        CHANNELS 6 Xposition Yposition Zposition Zrotation Xrotation Yrotation
        JOINT RightToeBase
        {
          OFFSET 0.00019078 -7.50004 12.5002
          CHANNELS 6 Xposition Yposition Zposition Zrotation Xrotation Yrotation
          JOINT RightFootToe
          {
            OFFSET 0 0 4
            CHANNELS 6 Xposition Yposition Zposition Zrotation Xrotation Yrotation
            End Site
            {
              OFFSET 0 0 0
            }
          }
        }
      }
    }
  }
}
MOTION
Frames:	3
Frame Time:	0.0111111
-395.799 76.9096 1483.23 0.855761 2.33607 160.603 0 8 2.27374e-13 8.96375 11.2457 -3.92299 1.13687e-13 8 -2.27374e-13 1.94425 8.5237 3.01216 0 8 0 1.02723 4.25636 1.5398 -5.68434e-14 8 0 1.02404 4.24249 1.53528 0 17 0 5.36692 -2.32261 -2.36363 2.84217e-13 10.8 0 12.3935 -5.78384 -5.1692 5 17 2.27374e-13 0.0987329 -0.387479 -0.845491 6.45 0 -2.27374e-13 -1.06648 -0.0524075 2.012 6.45 -1.13687e-13 0 47.8844 -16.4747 40.9605 -1.13687e-13 -32.4 -2 -40.98 -51.7126 -46.9758 -1.13687e-13 -25.65 2 23.0942 -18.5991 13.0437 -0.5 -1.5 2.65 -12.5033 -24.9062 33.6814 -1.13687e-13 -3.8 3.7 8.55881 17.9648 4.082 1.7053e-13 -3 2.7 0.00950182 20.1801 0.0157747 2.27374e-13 -1.9 1.6 -2.08121e-08 4.85559e-06 -4.7167e-06 -1.13687e-13 -8.3 1.9 -58.2802 22.2616 14.222 2.27374e-13 -4.5 -1.13687e-13 -49.205 -0.00577558 -0.116403 2.27374e-13 -3.4 0 -34.156 0.0428647 -0.0682613 -0.25 -2.2 0.4 -2.08121e-08 4.85559e-06 -4.7167e-06 2.27374e-13 -8.3 1 -66.1709 17.0871 14.7319 -1.13687e-13 -4.65 2.27374e-13 -88.1528 0.0109796 -0.0162784 0 -3.3 2.27374e-13 -90.0001 -1.30517e-05 -5.55915e-05 -0.5 -2.15 -0.8 -2.08121e-08 4.85559e-06 -4.7167e-06 -1.13687e-13 -7.75 -0.2 -67.8165 22.2141 20.9809 1.13687e-13 -3.8 0 -35.5415 -0.0512426 -0.0354307 0 -3.4 -2.27374e-13 -77.8676 0.00899078 -0.0212083 -0.75 -1.75 -1.85 -2.08121e-08 4.85559e-06 -4.7167e-06 -2.27374e-13 -7.15 -1 -29.6309 25.7807 9.25831 -1.7053e-13 -3 0 -56.3063 -0.00501111 0.0196707 0 -2.35 0 -39.0295 -0.0119912 0.00966335 -5 17 0 9.72068 -0.891092 0.884106 -6.45 -1.13687e-13 -2.27374e-13 -2.03952 -0.0970049 -2.39437 -6.45 5.68434e-14 0 -66.8903 -8.20286 10.9475 -1.13687e-13 -32.4 -2 -42.4453 -78.071 -31.1584 1.13687e-13 -25.65 2 -23.0004 4.30474 28.517 0.5 -1.5 2.65 13.4313 39.4625 -83.5808 -2.27374e-13 -3.8 3.7 -5.74586 18.1678 -2.9719 2.27374e-13 -3 2.7 -0.0212549 68.7521 0.0201873 5.68434e-14 -1.9 1.6 4.06949e-06 1.05853e-05 -3.33865e-06 5.68434e-14 -8.3 1.9 7.06248 -9.70385 0.53187 0 -4.5 5.68434e-14 -0.000823742 0.0419543 0.0370211 4.54747e-13 -3.4 -1.7053e-13 -0.00225409 -0.0447831 0.034449 0.25 -2.2 0.4 4.06949e-06 1.05853e-05 -3.33865e-06 -8.52651e-14 -8.3 1 5.57017 -2.39993 -0.0467644 0 -4.65 5.68434e-14 24.6789 11.0094 0.428753 -1.13687e-13 -3.3 0 21.5898 -0.094454 0.0309053 0.5 -2.15 -0.8 4.06949e-06 1.05853e-05 -3.33865e-06 5.68434e-14 -7.75 -0.2 4.38063 8.82757 -0.722996 2.27374e-13 -3.8 0 22.7396 26.7857 6.36319 1.13687e-13 -3.4 -2.27374e-13 33.677 0.00372719 0.0720436 0.75 -1.75 -1.85 4.06949e-06 1.05853e-05 -3.33865e-06 2.84217e-14 -7.15 -1 4.84634 16.9181 -1.315 5.68434e-14 -3 0 34.0752 42.0626 13.3762 2.27374e-13 -2.35 1.13687e-13 49.8731 0.10279 0.15161 8 0 0 42.8062 -34.985 39.1861 0 -45 -1 -45.8867 33.2498 16.9051 -2.84217e-14 -41 -2 22.0485 13.001 -18.8375 -1.7053e-13 -7.5 12.5 -3.71137e-05 -1.13459e-05 0.00612836 5.68434e-14 0 4 13.8399 -6.58803 89.9616 -8 0 0 1.29871 -38.6347 -18.0816 1.13687e-13 -45 -1 -55.3689 20.1394 25.6574 0 -41 -2 50.1434 -0.538462 11.1123 0 -7.5 12.5 0.0631438 -0.0430183 0.0129555 -5.68434e-14 5.68434e-14 4 -47.9716 5.43554 121.404 
-395.693 76.9254 1483.25 0.84922 2.3813 160.564 5.68434e-14 8 0 9.02252 11.2201 -3.96122 0 8 -2.27374e-13 1.92194 8.52029 3.02213 5.68434e-14 8 2.27374e-13 1.01624 4.25444 1.54468 -5.68434e-14 8 2.27374e-13 1.0129 4.24064 1.53846 1.13687e-13 17 0 5.33956 -2.27948 -2.36356 1.7053e-13 10.8 2.27374e-13 12.331 -5.68167 -5.17405 5 17 0 0.094229 -0.366505 -0.833769 6.45 -5.68434e-14 0 -1.05066 -0.0425705 2.02478 6.45 -1.13687e-13 0 47.7575 -16.0892 40.65 -1.13687e-13 -32.4 -2 -41.311 -51.974 -47.4857 -1.13687e-13 -25.65 2 23.4987 -18.76 13.4823 -0.5 -1.5 2.65 -12.9766 -24.5947 33.9454 -1.13687e-13 -3.8 3.7 8.32194 17.5246 4.05579 5.68434e-14 -3 2.7 0.0133204 18.5687 0.0273003 2.27374e-13 -1.9 1.6 -2.08121e-08 4.85559e-06 -4.7167e-06 0 -8.3 1.9 -53.784 22.6083 13.0624 3.41061e-13 -4.5 0 -51.5497 0.0169821 -0.116267 2.27374e-13 -3.4 0 -35.8316 0.0589207 -0.0580603 -0.25 -2.2 0.4 -2.08121e-08 4.85559e-06 -4.7167e-06 2.27374e-13 -8.3 1 -61.7765 17.5941 13.6687 1.13687e-13 -4.65 0 -88.5275 0.0119317 -0.0162784 0 -3.3 1.13687e-13 -90.0001 -1.30517e-05 -5.55915e-05 -0.5 -2.15 -0.8 -2.08121e-08 4.85559e-06 -4.7167e-06 -1.13687e-13 -7.75 -0.2 -63.5399 23.6878 20.0609 0 -3.8 0 -38.1853 -0.048946 -0.0718152 0 -3.4 -2.27374e-13 -78.814 0.0214876 -0.0218677 -0.75 -1.75 -1.85 -2.08121e-08 4.85559e-06 -4.7167e-06 -1.13687e-13 -7.15 -1 -26.5028 25.7436 8.29209 -1.13687e-13 -3 0 -55.6435 -0.00565491 0.0235688 0 -2.35 0 -38.527 -0.0134965 0.0103449 -5 17 -2.27374e-13 9.7008 -0.920403 0.939208 -6.45 -5.68434e-14 -2.27374e-13 -2.02916 -0.086595 -2.3882 -6.45 -5.68434e-14 -2.27374e-13 -67.0704 -8.09278 11.1902 -1.13687e-13 -32.4 -2 -41.86 -77.6073 -30.2646 1.13687e-13 -25.65 2 -23.1301 3.68516 29.2932 0.5 -1.5 2.65 14.9472 38.894 -85.7504 0 -3.8 3.7 -6.00489 18.885 -2.99506 0 -3 2.7 -0.0212549 68.7521 0.0201873 2.84217e-14 -1.9 1.6 4.06949e-06 1.05853e-05 -3.33865e-06 5.68434e-14 -8.3 1.9 7.38242 -10.7609 0.623527 -5.68434e-14 -4.5 0 -0.000822256 0.0419543 0.0349914 5.11591e-13 -3.4 -1.13687e-13 -0.00225558 -0.0447831 0.032547 0.25 -2.2 0.4 4.06949e-06 1.05853e-05 -3.33865e-06 -2.84217e-14 -8.3 1 6.03875 -3.36757 0.0092872 5.68434e-14 -4.65 0 23.0805 10.1868 0.363444 -1.13687e-13 -3.3 1.13687e-13 20.39 -0.0895526 0.0235212 0.5 -2.15 -0.8 4.06949e-06 1.05853e-05 -3.33865e-06 5.68434e-14 -7.75 -0.2 4.80721 8.79878 -0.765747 2.27374e-13 -3.8 0 22.2838 25.534 5.70917 2.27374e-13 -3.4 -2.27374e-13 32.4242 -0.0157808 0.069813 0.75 -1.75 -1.85 4.06949e-06 1.05853e-05 -3.33865e-06 5.68434e-14 -7.15 -1 5.06678 16.828 -1.33461 -2.84217e-14 -3 1.13687e-13 34.5674 39.8051 11.5145 0 -2.35 0 47.4377 0.0631083 0.135092 8 -2.84217e-14 0 42.8233 -34.881 39.1957 -1.13687e-13 -45 -1 -45.8084 33.2214 16.8437 0 -41 -2 21.9716 13.0593 -18.9239 -2.27374e-13 -7.5 12.5 -3.71137e-05 -1.13459e-05 0.00612836 -5.68434e-14 0 4 13.906 -6.57364 89.9655 -8 0 -2.27374e-13 1.32213 -38.6588 -18.0372 0 -45 -1 -55.4297 20.1523 25.7254 1.13687e-13 -41 -2 50.2961 -0.587115 11.0206 0 -7.5 12.5 0.0631438 -0.0430183 0.0129555 0 -5.68434e-14 4 -48.1121 5.39887 121.375 
-395.586 76.9412 1483.27 0.842741 2.42652 160.525 0 8 2.27374e-13 9.08126 11.1945 -3.99945 -1.13687e-13 8 -2.27374e-13 1.89963 8.51688 3.0321 0 8 0 1.00525 4.25253 1.54955 5.68434e-14 8 2.27374e-13 1.00254 4.2388 1.54333 0 17 -2.27374e-13 5.3122 -2.23635 -2.36349 2.27374e-13 10.8 -2.27374e-13 12.2685 -5.5795 -5.17892 5 17 2.27374e-13 0.0897164 -0.345531 -0.822048 6.45 5.68434e-14 0 -1.03666 -0.0320828 2.04054 6.45 0 0 47.6351 -15.7003 40.3429 0 -32.4 -2 -41.6496 -52.2318 -48.0028 -1.7053e-13 -25.65 2 23.906 -18.9192 13.9219 -0.5 -1.5 2.65 -13.4527 -24.284 34.2091 -1.13687e-13 -3.8 3.7 8.08466 17.0843 4.02995 5.68434e-14 -3 2.7 0.017817 16.9572 0.0386315 2.27374e-13 -1.9 1.6 -2.08121e-08 4.85559e-06 -4.7167e-06 0 -8.3 1.9 -49.2746 22.9487 11.8974 2.27374e-13 -4.5 0 -53.8944 0.0397398 -0.116131 0 -3.4 0 -37.5073 0.0749767 -0.0478593 -0.25 -2.2 0.4 -2.08121e-08 4.85559e-06 -4.7167e-06 1.13687e-13 -8.3 1 -57.3637 18.099 12.6006 1.13687e-13 -4.65 2.27374e-13 -88.9022 0.0128839 -0.0162784 0 -3.3 2.27374e-13 -90.0001 -1.30517e-05 -5.55915e-05 -0.5 -2.15 -0.8 -2.08121e-08 4.85559e-06 -4.7167e-06 0 -7.75 -0.2 -59.2139 25.1707 19.1338 0 -3.8 1.13687e-13 -40.8291 -0.0466494 -0.1082 0 -3.4 -1.13687e-13 -79.7604 0.0339844 -0.022527 -0.75 -1.75 -1.85 -2.08121e-08 4.85559e-06 -4.7167e-06 -2.27374e-13 -7.15 -1 -23.377 25.6997 7.32653 -1.13687e-13 -3 0 -54.9806 -0.0062987 0.027467 -2.27374e-13 -2.35 0 -38.0246 -0.0150017 0.0110265 -5 17 -2.27374e-13 9.68097 -0.949711 0.994312 -6.45 -5.68434e-14 -2.27374e-13 -2.01819 -0.0768557 -2.37499 -6.45 5.68434e-14 0 -67.2515 -7.98273 11.4329 -1.13687e-13 -32.4 -2 -41.3398 -77.1408 -29.4366 1.13687e-13 -25.65 2 -23.2434 3.07393 30.072 0.5 -1.5 2.65 16.4058 38.2283 -87.8217 -2.27374e-13 -3.8 3.7 -6.2633 19.6023 -3.01888 0 -3 2.7 -0.0212549 68.7521 0.0201873 0 -1.9 1.6 4.06949e-06 1.05853e-05 -3.33865e-06 5.68434e-14 -8.3 1.9 7.70582 -11.8178 0.716042 5.68434e-14 -4.5 0 -0.00082077 0.0419543 0.0329618 4.54747e-13 -3.4 -5.68434e-14 -0.00225707 -0.0447831 0.0306449 0.25 -2.2 0.4 4.06949e-06 1.05853e-05 -3.33865e-06 -2.84217e-14 -8.3 1 6.50924 -4.33521 0.065453 -5.68434e-14 -4.65 5.68434e-14 21.4802 9.36421 0.298547 0 -3.3 0 19.1902 -0.0846513 0.016137 0.5 -2.15 -0.8 4.06949e-06 1.05853e-05 -3.33865e-06 2.84217e-14 -7.75 -0.2 5.23374 8.76998 -0.808492 2.27374e-13 -3.8 0 21.7964 24.2771 5.07141 0 -3.4 -1.13687e-13 31.1713 -0.0352887 0.0675825 0.75 -1.75 -1.85 4.06949e-06 1.05853e-05 -3.33865e-06 5.68434e-14 -7.15 -1 5.28716 16.7379 -1.35421 -5.68434e-14 -3 0 34.8715 37.504 9.79006 0 -2.35 -1.13687e-13 45.0023 0.0234266 0.118574 8 -2.84217e-14 2.27374e-13 42.8404 -34.777 39.2054 0 -45 -1 -45.7302 33.1928 16.7823 2.84217e-14 -41 -2 21.8948 13.1174 -19.0103 -2.27374e-13 -7.5 12.5 -3.71137e-05 -1.13459e-05 0.00612836 0 7.10543e-15 4 13.9587 -6.544 89.9518 -8 0 0 1.3456 -38.6829 -17.9928 0 -45 -1 -55.4906 20.1651 25.7934 1.13687e-13 -41 -2 50.4487 -0.635796 10.929 -5.68434e-14 -7.5 12.5 0.0631438 -0.0430183 0.0129555 0 0 4 -48.247 5.33753 121.332 
